# xmcd CD database file
#
# Track frame offsets:
#	187
#	32437
#	53862
#	78925
#	105642
#	157115
#	185677
#
# Disc length: 2803 seconds
#
# Revision: 0
# Processed by: cddbd v1.4PL0 Copyright (c) Steve Scherf et al.
# Submitted via: CDex 1.50beta10
#
DISCID=510af107
DTITLE=Thad Jones - Mel Lewis - Suite for Pops
DYEAR=1972
DGENRE=Jazz
TTITLE0=Meetin' place
TTITLE1=The summary
TTITLE2=The farewell
TTITLE3=Toledo by candlelight
TTITLE4=The great one
TTITLE5=Only for now
TTITLE6=A good time was had by all
EXTD=YEAR: 1972
EXTT0=
EXTT1=
EXTT2=
EXTT3=
EXTT4=
EXTT5=
EXTT6=
PLAYORDER=
